<svg width="335" height="64" viewBox="0 0 335 64" fill="none" xmlns="http://www.w3.org/2000/svg">
<g filter="url(#filter0_i_1_402)">
<path d="M0 32C0 14.3269 14.3269 0 32 0H303C320.673 0 335 14.3269 335 32C335 49.6731 320.673 64 303 64H32C14.3269 64 0 49.6731 0 32Z" fill="#FF5F05"/>
<path d="M0 32C0 14.3269 14.3269 0 32 0H303C320.673 0 335 14.3269 335 32C335 49.6731 320.673 64 303 64H32C14.3269 64 0 49.6731 0 32Z" fill="url(#paint0_radial_1_402)" fill-opacity="0.3"/>
</g>
<path d="M1 32C1 14.8792 14.8792 1 32 1H303C320.121 1 334 14.8792 334 32C334 49.1208 320.121 63 303 63H32C14.8792 63 1 49.1208 1 32Z" stroke="white" stroke-opacity="0.2" stroke-width="2"/>
<path d="M1 32C1 14.8792 14.8792 1 32 1H303C320.121 1 334 14.8792 334 32C334 49.1208 320.121 63 303 63H32C14.8792 63 1 49.1208 1 32Z" stroke="url(#paint1_radial_1_402)" stroke-opacity="0.53" stroke-width="2"/>
<path d="M57.0073 25.9V35H55.3433V27.33H50.6243V35H48.9603V25.9H57.0073ZM64.3573 25.9C65.146 25.9 65.8306 26.03 66.4113 26.29C67.0006 26.55 67.4513 26.9227 67.7633 27.408C68.0753 27.8933 68.2313 28.4697 68.2313 29.137C68.2313 29.7957 68.0753 30.372 67.7633 30.866C67.4513 31.3513 67.0006 31.724 66.4113 31.984C65.8306 32.244 65.146 32.374 64.3573 32.374H62.3033V35H60.6133V25.9H64.3573ZM64.2793 30.944C65.016 30.944 65.575 30.788 65.9563 30.476C66.3376 30.164 66.5283 29.7177 66.5283 29.137C66.5283 28.5563 66.3376 28.11 65.9563 27.798C65.575 27.486 65.016 27.33 64.2793 27.33H62.3033V30.944H64.2793ZM70.8831 25.9H72.5471V32.361L77.4351 25.9H79.0081V35H77.3441V28.552L72.4561 35H70.8831V25.9ZM91.5327 33.57V36.937H89.9727V35H82.9917V36.937H81.4187L81.4317 33.57H81.8217C82.3937 33.544 82.7923 33.1237 83.0177 32.309C83.2517 31.4857 83.3947 30.3113 83.4467 28.786L83.5507 25.9H90.2197V33.57H91.5327ZM84.9287 28.942C84.8853 30.1207 84.79 31.1043 84.6427 31.893C84.4953 32.673 84.2613 33.232 83.9407 33.57H88.5557V27.33H84.9937L84.9287 28.942ZM94.177 25.9H101.262V27.291H95.841V29.527H98.532C99.624 29.527 100.452 29.7567 101.015 30.216C101.587 30.6667 101.873 31.321 101.873 32.179C101.873 33.0803 101.561 33.778 100.937 34.272C100.313 34.7573 99.4246 35 98.272 35H94.177V25.9ZM98.181 33.7C98.831 33.7 99.325 33.5743 99.663 33.323C100.001 33.0717 100.17 32.7077 100.17 32.231C100.17 31.295 99.507 30.827 98.181 30.827H95.841V33.7H98.181ZM110.732 32.894H106.182L105.285 35H103.543L107.638 25.9H109.302L113.41 35H111.642L110.732 32.894ZM110.173 31.568L108.457 27.59L106.754 31.568H110.173ZM121.992 27.33H118.976V35H117.299V27.33H114.296V25.9H121.992V27.33ZM124.503 25.9H126.167V32.361L131.055 25.9H132.628V35H130.964V28.552L126.076 35H124.503V25.9ZM145.636 30.255C146.182 30.4283 146.607 30.71 146.91 31.1C147.222 31.4813 147.378 31.932 147.378 32.452C147.378 32.998 147.201 33.4747 146.845 33.882C146.49 34.2807 146.013 34.5883 145.415 34.805C144.826 35.0217 144.18 35.13 143.478 35.13C142.872 35.13 142.261 35.0477 141.645 34.883C141.039 34.7097 140.475 34.454 139.955 34.116L140.501 32.881C140.9 33.1497 141.342 33.3577 141.827 33.505C142.313 33.6437 142.794 33.713 143.27 33.713C143.955 33.713 144.523 33.5787 144.973 33.31C145.433 33.0413 145.662 32.673 145.662 32.205C145.662 31.8063 145.498 31.503 145.168 31.295C144.839 31.087 144.384 30.983 143.803 30.983H141.684V29.657H143.673C144.176 29.657 144.57 29.553 144.856 29.345C145.142 29.137 145.285 28.8553 145.285 28.5C145.285 28.0753 145.09 27.746 144.7 27.512C144.319 27.278 143.829 27.161 143.231 27.161C142.824 27.161 142.404 27.2217 141.97 27.343C141.537 27.4557 141.13 27.6247 140.748 27.85L140.215 26.485C140.683 26.2337 141.177 26.0473 141.697 25.926C142.226 25.796 142.75 25.731 143.27 25.731C143.946 25.731 144.566 25.835 145.129 26.043C145.701 26.251 146.156 26.55 146.494 26.94C146.832 27.3213 147.001 27.772 147.001 28.292C147.001 28.7427 146.88 29.137 146.637 29.475C146.395 29.813 146.061 30.073 145.636 30.255ZM150.348 25.9H152.012V35H150.348V25.9ZM165.032 30.255C165.578 30.4283 166.002 30.71 166.306 31.1C166.618 31.4813 166.774 31.932 166.774 32.452C166.774 32.998 166.596 33.4747 166.241 33.882C165.885 34.2807 165.409 34.5883 164.811 34.805C164.221 35.0217 163.576 35.13 162.874 35.13C162.267 35.13 161.656 35.0477 161.041 34.883C160.434 34.7097 159.871 34.454 159.351 34.116L159.897 32.881C160.295 33.1497 160.737 33.3577 161.223 33.505C161.708 33.6437 162.189 33.713 162.666 33.713C163.35 33.713 163.918 33.5787 164.369 33.31C164.828 33.0413 165.058 32.673 165.058 32.205C165.058 31.8063 164.893 31.503 164.564 31.295C164.234 31.087 163.779 30.983 163.199 30.983H161.08V29.657H163.069C163.571 29.657 163.966 29.553 164.252 29.345C164.538 29.137 164.681 28.8553 164.681 28.5C164.681 28.0753 164.486 27.746 164.096 27.512C163.714 27.278 163.225 27.161 162.627 27.161C162.219 27.161 161.799 27.2217 161.366 27.343C160.932 27.4557 160.525 27.6247 160.144 27.85L159.611 26.485C160.079 26.2337 160.573 26.0473 161.093 25.926C161.621 25.796 162.146 25.731 162.666 25.731C163.342 25.731 163.961 25.835 164.525 26.043C165.097 26.251 165.552 26.55 165.89 26.94C166.228 27.3213 166.397 27.772 166.397 28.292C166.397 28.7427 166.275 29.137 166.033 29.475C165.79 29.813 165.456 30.073 165.032 30.255ZM177.816 25.9V35H176.126V31.1H171.42V35H169.73V25.9H171.42V29.657H176.126V25.9H177.816ZM181.422 25.9H183.086V32.361L187.974 25.9H189.547V35H187.883V28.552L182.995 35H181.422V25.9ZM201.094 31.165H199.534V35H197.883V31.165H196.323L194.022 35H192.072L194.932 30.255L192.267 25.9H194.061L196.284 29.709H197.883V25.9H199.534V29.709H201.107L203.343 25.9H205.137L202.485 30.268L205.332 35H203.382L201.094 31.165ZM210.9 31.165H209.21V35H207.546V25.9H209.21V29.709H210.952L213.565 25.9H215.359L212.252 30.307L215.476 35H213.565L210.9 31.165ZM221.85 35.13C220.923 35.13 220.086 34.9307 219.341 34.532C218.596 34.1247 218.011 33.5657 217.586 32.855C217.161 32.1357 216.949 31.334 216.949 30.45C216.949 29.566 217.161 28.7687 217.586 28.058C218.011 27.3387 218.596 26.7797 219.341 26.381C220.086 25.9737 220.923 25.77 221.85 25.77C222.777 25.77 223.614 25.9737 224.359 26.381C225.104 26.7797 225.689 27.3343 226.114 28.045C226.539 28.7557 226.751 29.5573 226.751 30.45C226.751 31.3427 226.539 32.1443 226.114 32.855C225.689 33.5657 225.104 34.1247 224.359 34.532C223.614 34.9307 222.777 35.13 221.85 35.13ZM221.85 33.648C222.457 33.648 223.003 33.5137 223.488 33.245C223.973 32.9677 224.355 32.5863 224.632 32.101C224.909 31.607 225.048 31.0567 225.048 30.45C225.048 29.8433 224.909 29.2973 224.632 28.812C224.355 28.318 223.973 27.9367 223.488 27.668C223.003 27.3907 222.457 27.252 221.85 27.252C221.243 27.252 220.697 27.3907 220.212 27.668C219.727 27.9367 219.345 28.318 219.068 28.812C218.791 29.2973 218.652 29.8433 218.652 30.45C218.652 31.0567 218.791 31.607 219.068 32.101C219.345 32.5863 219.727 32.9677 220.212 33.245C220.697 33.5137 221.243 33.648 221.85 33.648ZM237.447 25.77C238.339 25.77 239.141 25.9737 239.852 26.381C240.571 26.7797 241.134 27.3343 241.542 28.045C241.949 28.7557 242.153 29.5573 242.153 30.45C242.153 31.3427 241.949 32.1443 241.542 32.855C241.134 33.5657 240.571 34.1247 239.852 34.532C239.141 34.9307 238.339 35.13 237.447 35.13C236.632 35.13 235.887 34.961 235.211 34.623C234.543 34.285 233.993 33.8127 233.56 33.206C233.135 32.5993 232.871 31.9103 232.767 31.139H231.337V35H229.673V25.9H231.337V29.631H232.793C232.914 28.877 233.187 28.2097 233.612 27.629C234.045 27.0397 234.591 26.5847 235.25 26.264C235.917 25.9347 236.649 25.77 237.447 25.77ZM237.447 33.648C238.01 33.648 238.521 33.5137 238.981 33.245C239.44 32.9763 239.8 32.5993 240.06 32.114C240.32 31.6287 240.45 31.074 240.45 30.45C240.45 29.826 240.32 29.2713 240.06 28.786C239.8 28.3007 239.44 27.9237 238.981 27.655C238.521 27.3863 238.01 27.252 237.447 27.252C236.883 27.252 236.372 27.3863 235.913 27.655C235.462 27.9237 235.102 28.3007 234.834 28.786C234.574 29.2713 234.444 29.826 234.444 30.45C234.444 31.074 234.574 31.6287 234.834 32.114C235.102 32.5993 235.462 32.9763 235.913 33.245C236.372 33.5137 236.883 33.648 237.447 33.648ZM249.157 30.71H252.732V32.062H249.157V30.71ZM265.591 30.216C266.067 30.4327 266.431 30.7273 266.683 31.1C266.943 31.464 267.073 31.893 267.073 32.387C267.073 32.9417 266.917 33.427 266.605 33.843C266.301 34.259 265.868 34.5797 265.305 34.805C264.741 35.0217 264.087 35.13 263.342 35.13C262.596 35.13 261.942 35.0217 261.379 34.805C260.824 34.5797 260.395 34.259 260.092 33.843C259.788 33.427 259.637 32.9417 259.637 32.387C259.637 31.893 259.762 31.464 260.014 31.1C260.265 30.7273 260.625 30.4327 261.093 30.216C260.729 30.0167 260.447 29.7567 260.248 29.436C260.057 29.1067 259.962 28.7297 259.962 28.305C259.962 27.7937 260.1 27.3473 260.378 26.966C260.664 26.5847 261.062 26.29 261.574 26.082C262.085 25.874 262.674 25.77 263.342 25.77C264.018 25.77 264.611 25.874 265.123 26.082C265.634 26.29 266.033 26.5847 266.319 26.966C266.605 27.3473 266.748 27.7937 266.748 28.305C266.748 28.7297 266.648 29.1023 266.449 29.423C266.249 29.7437 265.963 30.008 265.591 30.216ZM263.342 27.096C262.813 27.096 262.393 27.2087 262.081 27.434C261.777 27.6593 261.626 27.9757 261.626 28.383C261.626 28.773 261.777 29.085 262.081 29.319C262.393 29.5443 262.813 29.657 263.342 29.657C263.879 29.657 264.304 29.5443 264.616 29.319C264.928 29.085 265.084 28.773 265.084 28.383C265.084 27.9757 264.923 27.6593 264.603 27.434C264.291 27.2087 263.87 27.096 263.342 27.096ZM263.342 33.804C263.966 33.804 264.46 33.674 264.824 33.414C265.188 33.154 265.37 32.7943 265.37 32.335C265.37 31.8843 265.188 31.529 264.824 31.269C264.46 31.009 263.966 30.879 263.342 30.879C262.718 30.879 262.228 31.009 261.873 31.269C261.517 31.529 261.34 31.8843 261.34 32.335C261.34 32.7943 261.517 33.154 261.873 33.414C262.228 33.674 262.718 33.804 263.342 33.804ZM272.056 29.423C273.339 29.423 274.288 29.6743 274.903 30.177C275.519 30.671 275.826 31.347 275.826 32.205C275.826 32.751 275.692 33.245 275.423 33.687C275.155 34.129 274.752 34.48 274.214 34.74C273.677 35 273.014 35.13 272.225 35.13C271.575 35.13 270.947 35.039 270.34 34.857C269.734 34.6663 269.222 34.4063 268.806 34.077L269.521 32.764C269.859 33.0413 270.262 33.2623 270.73 33.427C271.207 33.583 271.697 33.661 272.199 33.661C272.797 33.661 273.265 33.5397 273.603 33.297C273.95 33.0457 274.123 32.7033 274.123 32.27C274.123 31.802 273.937 31.451 273.564 31.217C273.2 30.9743 272.572 30.853 271.679 30.853H269.482L269.95 25.9H275.293V27.317H271.38L271.185 29.423H272.056ZM279.742 30.801C279.092 30.801 278.568 30.5713 278.169 30.112C277.77 29.6527 277.571 29.0503 277.571 28.305C277.571 27.5597 277.77 26.9573 278.169 26.498C278.568 26.0387 279.092 25.809 279.742 25.809C280.392 25.809 280.916 26.0387 281.315 26.498C281.722 26.9487 281.926 27.551 281.926 28.305C281.926 29.059 281.722 29.6657 281.315 30.125C280.916 30.5757 280.392 30.801 279.742 30.801ZM285.202 25.9H286.476L280.262 35H278.988L285.202 25.9ZM279.742 29.891C280.097 29.891 280.37 29.7523 280.561 29.475C280.76 29.1977 280.86 28.8077 280.86 28.305C280.86 27.8023 280.76 27.4123 280.561 27.135C280.37 26.8577 280.097 26.719 279.742 26.719C279.404 26.719 279.131 26.862 278.923 27.148C278.724 27.4253 278.624 27.811 278.624 28.305C278.624 28.799 278.724 29.189 278.923 29.475C279.131 29.7523 279.404 29.891 279.742 29.891ZM285.709 35.091C285.059 35.091 284.535 34.8613 284.136 34.402C283.737 33.9427 283.538 33.3403 283.538 32.595C283.538 31.8497 283.737 31.2473 284.136 30.788C284.535 30.3287 285.059 30.099 285.709 30.099C286.359 30.099 286.883 30.3287 287.282 30.788C287.689 31.2473 287.893 31.8497 287.893 32.595C287.893 33.3403 287.689 33.9427 287.282 34.402C286.883 34.8613 286.359 35.091 285.709 35.091ZM285.709 34.181C286.056 34.181 286.329 34.0423 286.528 33.765C286.727 33.479 286.827 33.089 286.827 32.595C286.827 32.101 286.727 31.7153 286.528 31.438C286.329 31.152 286.056 31.009 285.709 31.009C285.362 31.009 285.089 31.1477 284.89 31.425C284.691 31.7023 284.591 32.0923 284.591 32.595C284.591 33.0977 284.691 33.4877 284.89 33.765C285.089 34.0423 285.362 34.181 285.709 34.181Z" fill="white"/>
<defs>
<filter id="filter0_i_1_402" x="0" y="0" width="335" height="68" filterUnits="userSpaceOnUse" color-interpolation-filters="sRGB">
<feFlood flood-opacity="0" result="BackgroundImageFix"/>
<feBlend mode="normal" in="SourceGraphic" in2="BackgroundImageFix" result="shape"/>
<feColorMatrix in="SourceAlpha" type="matrix" values="0 0 0 0 0 0 0 0 0 0 0 0 0 0 0 0 0 0 127 0" result="hardAlpha"/>
<feOffset dy="4"/>
<feGaussianBlur stdDeviation="10.25"/>
<feComposite in2="hardAlpha" operator="arithmetic" k2="-1" k3="1"/>
<feColorMatrix type="matrix" values="0 0 0 0 1 0 0 0 0 0.856714 0 0 0 0 0.754167 0 0 0 0.6 0"/>
<feBlend mode="normal" in2="shape" result="effect1_innerShadow_1_402"/>
</filter>
<radialGradient id="paint0_radial_1_402" cx="0" cy="0" r="1" gradientUnits="userSpaceOnUse" gradientTransform="translate(177.938 13.44) rotate(96.8657) scale(83.1563 179.512)">
<stop stop-color="white"/>
<stop offset="1" stop-color="white" stop-opacity="0"/>
</radialGradient>
<radialGradient id="paint1_radial_1_402" cx="0" cy="0" r="1" gradientUnits="userSpaceOnUse" gradientTransform="translate(174.686 4.8451e-06) rotate(92.1353) scale(44.5109 117.797)">
<stop stop-color="white"/>
<stop offset="1" stop-color="white" stop-opacity="0"/>
</radialGradient>
</defs>
</svg>
